<?xml version="1.0" encoding="utf-8"?>
<!-- Generator: Adobe Illustrator 27.5.0, SVG Export Plug-In . SVG Version: 6.00 Build 0)  -->
<svg version="1.1" id="Layer_1" xmlns="http://www.w3.org/2000/svg" xmlns:xlink="http://www.w3.org/1999/xlink" x="0px" y="0px"
	 viewBox="0 0 500 300" style="enable-background:new 0 0 500 300;" xml:space="preserve">
<g>
	<rect style="fill:#2D292B;" width="500" height="300"/>
	<g>
		<linearGradient id="SVGID_1_" gradientUnits="userSpaceOnUse" x1="99.544" y1="15.8541" x2="27.5387" y2="89.8595">
			<stop  offset="0.0821" style="stop-color:#CB6F2C"/>
			<stop  offset="0.2846" style="stop-color:#FFF595"/>
			<stop  offset="0.4795" style="stop-color:#B2581F"/>
			<stop  offset="0.6641" style="stop-color:#D4772F"/>
			<stop  offset="0.7769" style="stop-color:#B2581F"/>
			<stop  offset="1" style="stop-color:#B0581E"/>
		</linearGradient>
		<path style="fill:url(#SVGID_1_);" d="M102.08,19.428v67.811c0,2.815-2.283,5.095-5.098,5.095H55.345
			c-1.957,0-3.875-0.18-5.732-0.526H49.61l-25.008-25.01c-0.346-1.857-0.526-3.775-0.526-5.732V19.428
			c0-2.814,2.28-5.095,5.095-5.095h67.811C99.797,14.333,102.08,16.613,102.08,19.428z"/>
		
			<linearGradient id="SVGID_00000086655596641148450850000005876846992372062340_" gradientUnits="userSpaceOnUse" x1="45.6257" y1="70.3865" x2="30.3389" y2="86.3877">
			<stop  offset="0.0821" style="stop-color:#A5A5A5"/>
			<stop  offset="0.2846" style="stop-color:#F4F4F4"/>
			<stop  offset="0.4795" style="stop-color:#939393"/>
			<stop  offset="0.6641" style="stop-color:#ACACAC"/>
			<stop  offset="0.7769" style="stop-color:#939393"/>
			<stop  offset="1" style="stop-color:#919191"/>
		</linearGradient>
		<path style="fill:url(#SVGID_00000086655596641148450850000005876846992372062340_);" d="M49.613,91.808H49.61l-25.008-25.01
			c0,0,4.212,1.477,10.189,2.297c5.98,0.82,11.335,3.135,12.347,9.261C48.139,84.404,49.576,91.63,49.613,91.808z"/>
	</g>
	<g>
		
			<linearGradient id="SVGID_00000012471108166181782630000005666795833448574867_" gradientUnits="userSpaceOnUse" x1="193.0048" y1="15.8541" x2="120.9995" y2="89.8595">
			<stop  offset="0.0821" style="stop-color:#CBAF2C"/>
			<stop  offset="0.2846" style="stop-color:#DFFF95"/>
			<stop  offset="0.4795" style="stop-color:#B2931F"/>
			<stop  offset="0.6641" style="stop-color:#D4B92F"/>
			<stop  offset="0.7769" style="stop-color:#B2931F"/>
			<stop  offset="1" style="stop-color:#B0921E"/>
		</linearGradient>
		<path style="fill:url(#SVGID_00000012471108166181782630000005666795833448574867_);" d="M195.541,19.428v67.811
			c0,2.815-2.283,5.095-5.098,5.095h-41.637c-1.957,0-3.875-0.18-5.732-0.526h-0.003l-25.008-25.01
			c-0.346-1.857-0.526-3.775-0.526-5.732V19.428c0-2.814,2.28-5.095,5.095-5.095h67.811
			C193.258,14.333,195.541,16.613,195.541,19.428z"/>
		
			<linearGradient id="SVGID_00000060744455916680766730000014828772424276186788_" gradientUnits="userSpaceOnUse" x1="139.0865" y1="70.3865" x2="123.7997" y2="86.3877">
			<stop  offset="0.0821" style="stop-color:#A5A5A5"/>
			<stop  offset="0.2846" style="stop-color:#F4F4F4"/>
			<stop  offset="0.4795" style="stop-color:#939393"/>
			<stop  offset="0.6641" style="stop-color:#ACACAC"/>
			<stop  offset="0.7769" style="stop-color:#939393"/>
			<stop  offset="1" style="stop-color:#919191"/>
		</linearGradient>
		<path style="fill:url(#SVGID_00000060744455916680766730000014828772424276186788_);" d="M143.074,91.808h-0.003l-25.008-25.01
			c0,0,4.212,1.477,10.189,2.297c5.98,0.82,11.335,3.135,12.347,9.261C141.599,84.404,143.037,91.63,143.074,91.808z"/>
	</g>
	<g>
		
			<linearGradient id="SVGID_00000070811596753076807370000009915486819503833473_" gradientUnits="userSpaceOnUse" x1="286.4656" y1="15.8541" x2="214.4603" y2="89.8595">
			<stop  offset="0.0821" style="stop-color:#8BCB2C"/>
			<stop  offset="0.2846" style="stop-color:#A1FF95"/>
			<stop  offset="0.4795" style="stop-color:#7BB21F"/>
			<stop  offset="0.6641" style="stop-color:#8FD42F"/>
			<stop  offset="0.7769" style="stop-color:#7BB21F"/>
			<stop  offset="1" style="stop-color:#78B01E"/>
		</linearGradient>
		<path style="fill:url(#SVGID_00000070811596753076807370000009915486819503833473_);" d="M289.001,19.428v67.811
			c0,2.815-2.283,5.095-5.098,5.095h-41.637c-1.957,0-3.875-0.18-5.732-0.526h-0.003l-25.008-25.01
			c-0.346-1.857-0.526-3.775-0.526-5.732V19.428c0-2.814,2.28-5.095,5.095-5.095h67.811
			C286.718,14.333,289.001,16.613,289.001,19.428z"/>
		
			<linearGradient id="SVGID_00000155829270607870320930000013786346045997469840_" gradientUnits="userSpaceOnUse" x1="232.5473" y1="70.3865" x2="217.2605" y2="86.3877">
			<stop  offset="0.0821" style="stop-color:#A5A5A5"/>
			<stop  offset="0.2846" style="stop-color:#F4F4F4"/>
			<stop  offset="0.4795" style="stop-color:#939393"/>
			<stop  offset="0.6641" style="stop-color:#ACACAC"/>
			<stop  offset="0.7769" style="stop-color:#939393"/>
			<stop  offset="1" style="stop-color:#919191"/>
		</linearGradient>
		<path style="fill:url(#SVGID_00000155829270607870320930000013786346045997469840_);" d="M236.535,91.808h-0.003l-25.008-25.01
			c0,0,4.212,1.477,10.189,2.297c5.98,0.82,11.335,3.135,12.347,9.261C235.06,84.404,236.498,91.63,236.535,91.808z"/>
	</g>
	<g>
		
			<linearGradient id="SVGID_00000054955662823415823870000004707877274429833612_" gradientUnits="userSpaceOnUse" x1="379.9264" y1="15.8541" x2="307.9211" y2="89.8595">
			<stop  offset="0.0821" style="stop-color:#2CCB6A"/>
			<stop  offset="0.2846" style="stop-color:#95FFF1"/>
			<stop  offset="0.4795" style="stop-color:#1FB253"/>
			<stop  offset="0.6641" style="stop-color:#2FD472"/>
			<stop  offset="0.7769" style="stop-color:#1FB253"/>
			<stop  offset="1" style="stop-color:#1EB053"/>
		</linearGradient>
		<path style="fill:url(#SVGID_00000054955662823415823870000004707877274429833612_);" d="M382.462,19.428v67.811
			c0,2.815-2.283,5.095-5.098,5.095h-41.637c-1.957,0-3.875-0.18-5.732-0.526h-0.003l-25.008-25.01
			c-0.346-1.857-0.526-3.775-0.526-5.732V19.428c0-2.814,2.28-5.095,5.095-5.095h67.811
			C380.179,14.333,382.462,16.613,382.462,19.428z"/>
		
			<linearGradient id="SVGID_00000052799416994984639970000011737976838249799046_" gradientUnits="userSpaceOnUse" x1="326.0081" y1="70.3865" x2="310.7213" y2="86.3877">
			<stop  offset="0.0821" style="stop-color:#A5A5A5"/>
			<stop  offset="0.2846" style="stop-color:#F4F4F4"/>
			<stop  offset="0.4795" style="stop-color:#939393"/>
			<stop  offset="0.6641" style="stop-color:#ACACAC"/>
			<stop  offset="0.7769" style="stop-color:#939393"/>
			<stop  offset="1" style="stop-color:#919191"/>
		</linearGradient>
		<path style="fill:url(#SVGID_00000052799416994984639970000011737976838249799046_);" d="M329.996,91.808h-0.003l-25.008-25.01
			c0,0,4.212,1.477,10.189,2.297c5.98,0.82,11.335,3.135,12.347,9.261C328.521,84.404,329.958,91.63,329.996,91.808z"/>
	</g>
	<g>
		
			<linearGradient id="SVGID_00000001660053817299322400000009869953747821547656_" gradientUnits="userSpaceOnUse" x1="473.3872" y1="15.8541" x2="401.3819" y2="89.8595">
			<stop  offset="0.0821" style="stop-color:#1CAFB7"/>
			<stop  offset="0.2846" style="stop-color:#75B3FF"/>
			<stop  offset="0.4795" style="stop-color:#139697"/>
			<stop  offset="0.6641" style="stop-color:#1EB7C3"/>
			<stop  offset="0.7769" style="stop-color:#139697"/>
			<stop  offset="1" style="stop-color:#139294"/>
		</linearGradient>
		<path style="fill:url(#SVGID_00000001660053817299322400000009869953747821547656_);" d="M475.923,19.428v67.811
			c0,2.815-2.283,5.095-5.098,5.095h-41.637c-1.957,0-3.875-0.18-5.732-0.526h-0.003l-25.008-25.01
			c-0.346-1.857-0.526-3.775-0.526-5.732V19.428c0-2.814,2.28-5.095,5.095-5.095h67.811
			C473.64,14.333,475.923,16.613,475.923,19.428z"/>
		
			<linearGradient id="SVGID_00000021099046955273662780000003075886357937296557_" gradientUnits="userSpaceOnUse" x1="419.4689" y1="70.3865" x2="404.1821" y2="86.3877">
			<stop  offset="0.0821" style="stop-color:#A5A5A5"/>
			<stop  offset="0.2846" style="stop-color:#F4F4F4"/>
			<stop  offset="0.4795" style="stop-color:#939393"/>
			<stop  offset="0.6641" style="stop-color:#ACACAC"/>
			<stop  offset="0.7769" style="stop-color:#939393"/>
			<stop  offset="1" style="stop-color:#919191"/>
		</linearGradient>
		<path style="fill:url(#SVGID_00000021099046955273662780000003075886357937296557_);" d="M423.456,91.808h-0.003l-25.008-25.01
			c0,0,4.212,1.477,10.189,2.297c5.98,0.82,11.335,3.135,12.347,9.261C421.982,84.404,423.419,91.63,423.456,91.808z"/>
	</g>
	<g>
		
			<linearGradient id="SVGID_00000074441581560250334380000017144769546208757385_" gradientUnits="userSpaceOnUse" x1="99.544" y1="112.5207" x2="27.5387" y2="186.5262">
			<stop  offset="0.0821" style="stop-color:#CB2C31"/>
			<stop  offset="0.2846" style="stop-color:#FFC595"/>
			<stop  offset="0.4795" style="stop-color:#B21F28"/>
			<stop  offset="0.6641" style="stop-color:#D42F31"/>
			<stop  offset="0.7769" style="stop-color:#B21F28"/>
			<stop  offset="1" style="stop-color:#B01E26"/>
		</linearGradient>
		<path style="fill:url(#SVGID_00000074441581560250334380000017144769546208757385_);" d="M102.08,116.095v67.811
			c0,2.815-2.283,5.095-5.098,5.095H55.345c-1.957,0-3.875-0.18-5.732-0.526H49.61l-25.008-25.01
			c-0.346-1.857-0.526-3.775-0.526-5.732v-41.637c0-2.814,2.28-5.095,5.095-5.095h67.811C99.797,111,102.08,113.28,102.08,116.095z"
			/>
		
			<linearGradient id="SVGID_00000134967665303765772110000004380614442094089358_" gradientUnits="userSpaceOnUse" x1="45.6257" y1="167.0532" x2="30.3389" y2="183.0544">
			<stop  offset="0.0821" style="stop-color:#A5A5A5"/>
			<stop  offset="0.2846" style="stop-color:#F4F4F4"/>
			<stop  offset="0.4795" style="stop-color:#939393"/>
			<stop  offset="0.6641" style="stop-color:#ACACAC"/>
			<stop  offset="0.7769" style="stop-color:#939393"/>
			<stop  offset="1" style="stop-color:#919191"/>
		</linearGradient>
		<path style="fill:url(#SVGID_00000134967665303765772110000004380614442094089358_);" d="M49.613,188.474H49.61l-25.008-25.01
			c0,0,4.212,1.477,10.189,2.297c5.98,0.82,11.335,3.135,12.347,9.261C48.139,181.071,49.576,188.297,49.613,188.474z"/>
	</g>
	<g>
		
			<linearGradient id="SVGID_00000006681032943675433650000004276178766326564227_" gradientUnits="userSpaceOnUse" x1="193.0048" y1="112.5207" x2="120.9995" y2="186.5262">
			<stop  offset="0.0821" style="stop-color:#CB2C63"/>
			<stop  offset="0.2846" style="stop-color:#FFA495"/>
			<stop  offset="0.4795" style="stop-color:#B21F57"/>
			<stop  offset="0.6641" style="stop-color:#D42F65"/>
			<stop  offset="0.7769" style="stop-color:#B21F57"/>
			<stop  offset="1" style="stop-color:#B01E54"/>
		</linearGradient>
		<path style="fill:url(#SVGID_00000006681032943675433650000004276178766326564227_);" d="M195.541,116.095v67.811
			c0,2.815-2.283,5.095-5.098,5.095h-41.637c-1.957,0-3.875-0.18-5.732-0.526h-0.003l-25.008-25.01
			c-0.346-1.857-0.526-3.775-0.526-5.732v-41.637c0-2.814,2.28-5.095,5.095-5.095h67.811
			C193.258,111,195.541,113.28,195.541,116.095z"/>
		
			<linearGradient id="SVGID_00000019646454534474247080000003751447629171039927_" gradientUnits="userSpaceOnUse" x1="139.0865" y1="167.0532" x2="123.7997" y2="183.0544">
			<stop  offset="0.0821" style="stop-color:#A5A5A5"/>
			<stop  offset="0.2846" style="stop-color:#F4F4F4"/>
			<stop  offset="0.4795" style="stop-color:#939393"/>
			<stop  offset="0.6641" style="stop-color:#ACACAC"/>
			<stop  offset="0.7769" style="stop-color:#939393"/>
			<stop  offset="1" style="stop-color:#919191"/>
		</linearGradient>
		<path style="fill:url(#SVGID_00000019646454534474247080000003751447629171039927_);" d="M143.074,188.474h-0.003l-25.008-25.01
			c0,0,4.212,1.477,10.189,2.297c5.98,0.82,11.335,3.135,12.347,9.261C141.599,181.071,143.037,188.297,143.074,188.474z"/>
	</g>
	<g>
		
			<linearGradient id="SVGID_00000181084637927741581160000005922447099004132526_" gradientUnits="userSpaceOnUse" x1="286.4656" y1="112.5207" x2="214.4603" y2="186.5262">
			<stop  offset="0.0821" style="stop-color:#CB2CA8"/>
			<stop  offset="0.2846" style="stop-color:#FF95B4"/>
			<stop  offset="0.4795" style="stop-color:#B21F96"/>
			<stop  offset="0.6641" style="stop-color:#D42FAD"/>
			<stop  offset="0.7769" style="stop-color:#B21F96"/>
			<stop  offset="1" style="stop-color:#B01E93"/>
		</linearGradient>
		<path style="fill:url(#SVGID_00000181084637927741581160000005922447099004132526_);" d="M289.001,116.095v67.811
			c0,2.815-2.283,5.095-5.098,5.095h-41.637c-1.957,0-3.875-0.18-5.732-0.526h-0.003l-25.008-25.01
			c-0.346-1.857-0.526-3.775-0.526-5.732v-41.637c0-2.814,2.28-5.095,5.095-5.095h67.811
			C286.718,111,289.001,113.28,289.001,116.095z"/>
		
			<linearGradient id="SVGID_00000129177064502566371540000007143898470074573470_" gradientUnits="userSpaceOnUse" x1="232.5473" y1="167.0532" x2="217.2605" y2="183.0544">
			<stop  offset="0.0821" style="stop-color:#A5A5A5"/>
			<stop  offset="0.2846" style="stop-color:#F4F4F4"/>
			<stop  offset="0.4795" style="stop-color:#939393"/>
			<stop  offset="0.6641" style="stop-color:#ACACAC"/>
			<stop  offset="0.7769" style="stop-color:#939393"/>
			<stop  offset="1" style="stop-color:#919191"/>
		</linearGradient>
		<path style="fill:url(#SVGID_00000129177064502566371540000007143898470074573470_);" d="M236.535,188.474h-0.003l-25.008-25.01
			c0,0,4.212,1.477,10.189,2.297c5.98,0.82,11.335,3.135,12.347,9.261C235.06,181.071,236.498,188.297,236.535,188.474z"/>
	</g>
	<g>
		
			<linearGradient id="SVGID_00000042012217563099951530000017365906461464900499_" gradientUnits="userSpaceOnUse" x1="379.9264" y1="112.5207" x2="307.9211" y2="186.5262">
			<stop  offset="0.0821" style="stop-color:#9F2CCB"/>
			<stop  offset="0.2846" style="stop-color:#FF95E9"/>
			<stop  offset="0.4795" style="stop-color:#841FB2"/>
			<stop  offset="0.6641" style="stop-color:#A92FD4"/>
			<stop  offset="0.7769" style="stop-color:#841FB2"/>
			<stop  offset="1" style="stop-color:#841EB0"/>
		</linearGradient>
		<path style="fill:url(#SVGID_00000042012217563099951530000017365906461464900499_);" d="M382.462,116.095v67.811
			c0,2.815-2.283,5.095-5.098,5.095h-41.637c-1.957,0-3.875-0.18-5.732-0.526h-0.003l-25.008-25.01
			c-0.346-1.857-0.526-3.775-0.526-5.732v-41.637c0-2.814,2.28-5.095,5.095-5.095h67.811
			C380.179,111,382.462,113.28,382.462,116.095z"/>
		
			<linearGradient id="SVGID_00000156560392386068674320000008529016262483366326_" gradientUnits="userSpaceOnUse" x1="326.0081" y1="167.0532" x2="310.7213" y2="183.0544">
			<stop  offset="0.0821" style="stop-color:#A5A5A5"/>
			<stop  offset="0.2846" style="stop-color:#F4F4F4"/>
			<stop  offset="0.4795" style="stop-color:#939393"/>
			<stop  offset="0.6641" style="stop-color:#ACACAC"/>
			<stop  offset="0.7769" style="stop-color:#939393"/>
			<stop  offset="1" style="stop-color:#919191"/>
		</linearGradient>
		<path style="fill:url(#SVGID_00000156560392386068674320000008529016262483366326_);" d="M329.996,188.474h-0.003l-25.008-25.01
			c0,0,4.212,1.477,10.189,2.297c5.98,0.82,11.335,3.135,12.347,9.261C328.521,181.071,329.958,188.297,329.996,188.474z"/>
	</g>
	<g>
		
			<linearGradient id="SVGID_00000064342051106772230030000018054190522574127295_" gradientUnits="userSpaceOnUse" x1="473.3872" y1="112.5207" x2="401.3819" y2="186.5262">
			<stop  offset="0.0821" style="stop-color:#542CCB"/>
			<stop  offset="0.2846" style="stop-color:#E395FF"/>
			<stop  offset="0.4795" style="stop-color:#3F1FB2"/>
			<stop  offset="0.6641" style="stop-color:#5C2FD4"/>
			<stop  offset="0.7769" style="stop-color:#3F1FB2"/>
			<stop  offset="1" style="stop-color:#401EB0"/>
		</linearGradient>
		<path style="fill:url(#SVGID_00000064342051106772230030000018054190522574127295_);" d="M475.923,116.095v67.811
			c0,2.815-2.283,5.095-5.098,5.095h-41.637c-1.957,0-3.875-0.18-5.732-0.526h-0.003l-25.008-25.01
			c-0.346-1.857-0.526-3.775-0.526-5.732v-41.637c0-2.814,2.28-5.095,5.095-5.095h67.811C473.64,111,475.923,113.28,475.923,116.095
			z"/>
		
			<linearGradient id="SVGID_00000104701890630653526740000013456251926273380497_" gradientUnits="userSpaceOnUse" x1="419.4689" y1="167.0532" x2="404.1821" y2="183.0544">
			<stop  offset="0.0821" style="stop-color:#A5A5A5"/>
			<stop  offset="0.2846" style="stop-color:#F4F4F4"/>
			<stop  offset="0.4795" style="stop-color:#939393"/>
			<stop  offset="0.6641" style="stop-color:#ACACAC"/>
			<stop  offset="0.7769" style="stop-color:#939393"/>
			<stop  offset="1" style="stop-color:#919191"/>
		</linearGradient>
		<path style="fill:url(#SVGID_00000104701890630653526740000013456251926273380497_);" d="M423.456,188.474h-0.003l-25.008-25.01
			c0,0,4.212,1.477,10.189,2.297c5.98,0.82,11.335,3.135,12.347,9.261C421.982,181.071,423.419,188.297,423.456,188.474z"/>
	</g>
	<g>
		
			<linearGradient id="SVGID_00000085962846907402065100000004987451625577329029_" gradientUnits="userSpaceOnUse" x1="99.544" y1="209.1874" x2="27.5387" y2="283.1928">
			<stop  offset="0.0821" style="stop-color:#2C88CB"/>
			<stop  offset="0.2846" style="stop-color:#959FFF"/>
			<stop  offset="0.4795" style="stop-color:#1F79B2"/>
			<stop  offset="0.6641" style="stop-color:#2F8CD4"/>
			<stop  offset="0.7769" style="stop-color:#1F79B2"/>
			<stop  offset="1" style="stop-color:#1E76B0"/>
		</linearGradient>
		<path style="fill:url(#SVGID_00000085962846907402065100000004987451625577329029_);" d="M102.08,212.761v67.811
			c0,2.815-2.283,5.095-5.098,5.095H55.345c-1.957,0-3.875-0.18-5.732-0.526H49.61l-25.008-25.01
			c-0.346-1.857-0.526-3.775-0.526-5.732v-41.637c0-2.814,2.28-5.095,5.095-5.095h67.811
			C99.797,207.667,102.08,209.947,102.08,212.761z"/>
		
			<linearGradient id="SVGID_00000088828785983129385570000011243286953622551183_" gradientUnits="userSpaceOnUse" x1="45.6257" y1="263.7199" x2="30.3389" y2="279.721">
			<stop  offset="0.0821" style="stop-color:#A5A5A5"/>
			<stop  offset="0.2846" style="stop-color:#F4F4F4"/>
			<stop  offset="0.4795" style="stop-color:#939393"/>
			<stop  offset="0.6641" style="stop-color:#ACACAC"/>
			<stop  offset="0.7769" style="stop-color:#939393"/>
			<stop  offset="1" style="stop-color:#919191"/>
		</linearGradient>
		<path style="fill:url(#SVGID_00000088828785983129385570000011243286953622551183_);" d="M49.613,285.141H49.61l-25.008-25.01
			c0,0,4.212,1.477,10.189,2.297c5.98,0.82,11.335,3.135,12.347,9.261C48.139,277.738,49.576,284.964,49.613,285.141z"/>
	</g>
	<g>
		
			<linearGradient id="SVGID_00000104704835214681192650000000975712640279551410_" gradientUnits="userSpaceOnUse" x1="193.0048" y1="209.1874" x2="120.9995" y2="283.1928">
			<stop  offset="0.0821" style="stop-color:#917866"/>
			<stop  offset="0.2846" style="stop-color:#D8D6BC"/>
			<stop  offset="0.4795" style="stop-color:#7C6455"/>
			<stop  offset="0.6641" style="stop-color:#987F6B"/>
			<stop  offset="0.7769" style="stop-color:#7C6455"/>
			<stop  offset="1" style="stop-color:#7B6353"/>
		</linearGradient>
		<path style="fill:url(#SVGID_00000104704835214681192650000000975712640279551410_);" d="M195.541,212.761v67.811
			c0,2.815-2.283,5.095-5.098,5.095h-41.637c-1.957,0-3.875-0.18-5.732-0.526h-0.003l-25.008-25.01
			c-0.346-1.857-0.526-3.775-0.526-5.732v-41.637c0-2.814,2.28-5.095,5.095-5.095h67.811
			C193.258,207.667,195.541,209.947,195.541,212.761z"/>
		
			<linearGradient id="SVGID_00000065069343710398922240000016744052907804922791_" gradientUnits="userSpaceOnUse" x1="139.0865" y1="263.7199" x2="123.7997" y2="279.721">
			<stop  offset="0.0821" style="stop-color:#A5A5A5"/>
			<stop  offset="0.2846" style="stop-color:#F4F4F4"/>
			<stop  offset="0.4795" style="stop-color:#939393"/>
			<stop  offset="0.6641" style="stop-color:#ACACAC"/>
			<stop  offset="0.7769" style="stop-color:#939393"/>
			<stop  offset="1" style="stop-color:#919191"/>
		</linearGradient>
		<path style="fill:url(#SVGID_00000065069343710398922240000016744052907804922791_);" d="M143.074,285.141h-0.003l-25.008-25.01
			c0,0,4.212,1.477,10.189,2.297c5.98,0.82,11.335,3.135,12.347,9.261C141.599,277.738,143.037,284.964,143.074,285.141z"/>
	</g>
	<g>
		
			<linearGradient id="SVGID_00000175305613439704148310000010190290606063028143_" gradientUnits="userSpaceOnUse" x1="286.4656" y1="209.1874" x2="214.4603" y2="283.1928">
			<stop  offset="0.0821" style="stop-color:#ABB3C0"/>
			<stop  offset="0.2846" style="stop-color:#FFFFFF"/>
			<stop  offset="0.4795" style="stop-color:#97A1AE"/>
			<stop  offset="0.6641" style="stop-color:#B3BAC6"/>
			<stop  offset="0.7769" style="stop-color:#97A1AE"/>
			<stop  offset="1" style="stop-color:#959FAC"/>
		</linearGradient>
		<path style="fill:url(#SVGID_00000175305613439704148310000010190290606063028143_);" d="M289.001,212.761v67.811
			c0,2.815-2.283,5.095-5.098,5.095h-41.637c-1.957,0-3.875-0.18-5.732-0.526h-0.003l-25.008-25.01
			c-0.346-1.857-0.526-3.775-0.526-5.732v-41.637c0-2.814,2.28-5.095,5.095-5.095h67.811
			C286.718,207.667,289.001,209.947,289.001,212.761z"/>
		
			<linearGradient id="SVGID_00000148644211050148709520000005178737255865396410_" gradientUnits="userSpaceOnUse" x1="232.5473" y1="263.7199" x2="217.2605" y2="279.721">
			<stop  offset="0.0821" style="stop-color:#A5A5A5"/>
			<stop  offset="0.2846" style="stop-color:#F4F4F4"/>
			<stop  offset="0.4795" style="stop-color:#939393"/>
			<stop  offset="0.6641" style="stop-color:#ACACAC"/>
			<stop  offset="0.7769" style="stop-color:#939393"/>
			<stop  offset="1" style="stop-color:#919191"/>
		</linearGradient>
		<path style="fill:url(#SVGID_00000148644211050148709520000005178737255865396410_);" d="M236.535,285.141h-0.003l-25.008-25.01
			c0,0,4.212,1.477,10.189,2.297c5.98,0.82,11.335,3.135,12.347,9.261C235.06,277.738,236.498,284.964,236.535,285.141z"/>
	</g>
	<g>
		
			<linearGradient id="SVGID_00000047751719795508238680000009951544984974431135_" gradientUnits="userSpaceOnUse" x1="379.9264" y1="209.1874" x2="307.9211" y2="283.1928">
			<stop  offset="0.0821" style="stop-color:#6E7B88"/>
			<stop  offset="0.2846" style="stop-color:#C5CAD5"/>
			<stop  offset="0.4795" style="stop-color:#5B6975"/>
			<stop  offset="0.6641" style="stop-color:#76828F"/>
			<stop  offset="0.7769" style="stop-color:#5B6975"/>
			<stop  offset="1" style="stop-color:#596773"/>
		</linearGradient>
		<path style="fill:url(#SVGID_00000047751719795508238680000009951544984974431135_);" d="M382.462,212.761v67.811
			c0,2.815-2.283,5.095-5.098,5.095h-41.637c-1.957,0-3.875-0.18-5.732-0.526h-0.003l-25.008-25.01
			c-0.346-1.857-0.526-3.775-0.526-5.732v-41.637c0-2.814,2.28-5.095,5.095-5.095h67.811
			C380.179,207.667,382.462,209.947,382.462,212.761z"/>
		
			<linearGradient id="SVGID_00000145029417451745354890000014227209078270233014_" gradientUnits="userSpaceOnUse" x1="326.0081" y1="263.7199" x2="310.7213" y2="279.721">
			<stop  offset="0.0821" style="stop-color:#A5A5A5"/>
			<stop  offset="0.2846" style="stop-color:#F4F4F4"/>
			<stop  offset="0.4795" style="stop-color:#939393"/>
			<stop  offset="0.6641" style="stop-color:#ACACAC"/>
			<stop  offset="0.7769" style="stop-color:#939393"/>
			<stop  offset="1" style="stop-color:#919191"/>
		</linearGradient>
		<path style="fill:url(#SVGID_00000145029417451745354890000014227209078270233014_);" d="M329.996,285.141h-0.003l-25.008-25.01
			c0,0,4.212,1.477,10.189,2.297c5.98,0.82,11.335,3.135,12.347,9.261C328.521,277.738,329.958,284.964,329.996,285.141z"/>
	</g>
	<g>
		
			<linearGradient id="SVGID_00000180359348212098212580000012752421057367041442_" gradientUnits="userSpaceOnUse" x1="473.3872" y1="209.1874" x2="401.3819" y2="283.1928">
			<stop  offset="0.0821" style="stop-color:#3C505F"/>
			<stop  offset="0.2846" style="stop-color:#919FB1"/>
			<stop  offset="0.4795" style="stop-color:#2B3E4A"/>
			<stop  offset="0.6641" style="stop-color:#435766"/>
			<stop  offset="0.7769" style="stop-color:#2B3E4A"/>
			<stop  offset="1" style="stop-color:#293C48"/>
		</linearGradient>
		<path style="fill:url(#SVGID_00000180359348212098212580000012752421057367041442_);" d="M475.923,212.761v67.811
			c0,2.815-2.283,5.095-5.098,5.095h-41.637c-1.957,0-3.875-0.18-5.732-0.526h-0.003l-25.008-25.01
			c-0.346-1.857-0.526-3.775-0.526-5.732v-41.637c0-2.814,2.28-5.095,5.095-5.095h67.811
			C473.64,207.667,475.923,209.947,475.923,212.761z"/>
		
			<linearGradient id="SVGID_00000013911009172777258850000005539229432084006559_" gradientUnits="userSpaceOnUse" x1="419.4689" y1="263.7199" x2="404.1821" y2="279.721">
			<stop  offset="0.0821" style="stop-color:#A5A5A5"/>
			<stop  offset="0.2846" style="stop-color:#F4F4F4"/>
			<stop  offset="0.4795" style="stop-color:#939393"/>
			<stop  offset="0.6641" style="stop-color:#ACACAC"/>
			<stop  offset="0.7769" style="stop-color:#939393"/>
			<stop  offset="1" style="stop-color:#919191"/>
		</linearGradient>
		<path style="fill:url(#SVGID_00000013911009172777258850000005539229432084006559_);" d="M423.456,285.141h-0.003l-25.008-25.01
			c0,0,4.212,1.477,10.189,2.297c5.98,0.82,11.335,3.135,12.347,9.261C421.982,277.738,423.419,284.964,423.456,285.141z"/>
	</g>
</g>
</svg>
